# Blender 4.0.2
# www.blender.org
o 250_243_221
v -12.500000 12.500000 1.000000
v -12.500000 12.500000 12.000000
v 12.500000 12.500000 1.000000
v 12.500000 12.500000 12.000000
v -12.500000 -12.500000 1.000000
v -12.500000 -12.500000 12.000000
v 12.500000 -12.500000 1.000000
v 12.500000 -12.500000 12.000000
v -16.500000 16.500000 12.000000
v 16.500000 16.500000 12.000000
v -16.500000 -16.500000 12.000000
v 16.500000 -16.500000 12.000000
v 16.500000 16.500000 13.000000
v 16.500000 -16.500000 13.000000
v -16.500000 -16.500000 13.000000
v -16.500000 16.500000 13.000000
v -21.500000 21.500000 1.000000
v -21.500000 -21.500000 1.000000
v 21.500000 21.500000 1.000000
v 21.500000 -21.500000 1.000000
v -10.500000 10.500000 13.000000
v -10.500000 10.500000 24.000000
v 10.500000 10.500000 13.000000
v 10.500000 10.500000 24.000000
v -10.500000 -10.500000 13.000000
v -10.500000 -10.500000 24.000000
v 10.500000 -10.500000 13.000000
v 10.500000 -10.500000 24.000000
v -14.500000 14.500000 24.000000
v 14.500000 14.500000 24.000000
v -14.500000 -14.500000 24.000000
v 14.500000 -14.500000 24.000000
v -14.500000 14.500000 25.000000
v 14.500000 -14.500000 25.000000
v -14.500000 -14.500000 25.000000
v 14.500000 14.500000 25.000000
v 14.000000 0.000000 25.000000
v 10.296136 4.264800 27.754438
v 9.899495 -9.899495 25.000000
v 10.296137 -4.264799 27.754438
v 0.000000 -14.000000 25.000000
v 4.264800 -10.296136 27.754438
v -9.899495 -9.899495 25.000000
v -4.264799 -10.296137 27.754438
v -14.000000 0.000000 25.000000
v -10.296136 -4.264800 27.754438
v -9.899495 9.899495 25.000000
v -10.296137 4.264799 27.754438
v 0.000000 14.000000 25.000000
v -4.264800 10.296136 27.754438
v 9.899495 9.899495 25.000000
v 4.264799 10.296137 27.754438
v 0.000000 -0.000000 30.000004
vn -0.0000 1.0000 -0.0000
vn 1.0000 -0.0000 -0.0000
vn -0.0000 -1.0000 -0.0000
vn -1.0000 -0.0000 -0.0000
vn -0.0000 -0.0000 -1.0000
vn -0.0000 -0.0000 1.0000
vn 0.6962 -0.0000 0.7178
vn 0.5033 -0.2085 0.8386
vn 0.4923 -0.4923 0.7178
vn 0.2085 -0.5033 0.8386
vn -0.0000 -0.6962 0.7178
vn -0.2085 -0.5033 0.8386
vn -0.4923 -0.4923 0.7178
vn -0.5033 -0.2085 0.8386
vn -0.6962 -0.0000 0.7178
vn -0.5033 0.2085 0.8386
vn -0.4923 0.4923 0.7178
vn -0.2085 0.5033 0.8386
vn -0.0000 0.6962 0.7178
vn 0.2085 0.5033 0.8386
vn 0.4923 0.4923 0.7178
vn 0.5033 0.2085 0.8386
s 1
f 1//1 2//1 4//1 3//1
f 3//2 4//2 8//2 7//2
f 7//3 8//3 6//3 5//3
f 5//4 6//4 2//4 1//4
f 12//5 11//5 9//5 10//5
f 11//3 12//3 14//3 15//3
f 10//1 9//1 16//1 13//1
f 9//4 11//4 15//4 16//4
f 12//2 10//2 13//2 14//2
f 16//6 15//6 14//6 13//6
f 17//6 18//6 20//6 19//6
f 21//1 22//1 24//1 23//1
f 23//2 24//2 28//2 27//2
f 27//3 28//3 26//3 25//3
f 25//4 26//4 22//4 21//4
f 32//5 31//5 29//5 30//5
f 31//3 32//3 34//3 35//3
f 30//1 29//1 33//1 36//1
f 29//4 31//4 35//4 33//4
f 32//2 30//2 36//2 34//2
f 33//6 35//6 34//6 36//6
f 37//7 40//8 39//9
f 39//9 42//10 41//11
f 41//11 44//12 43//13
f 43//13 46//14 45//15
f 45//15 48//16 47//17
f 47//17 50//18 49//19
f 49//19 52//20 51//21
f 51//21 38//22 37//7
f 37//7 38//22 40//8
f 39//9 40//8 42//10
f 41//11 42//10 44//12
f 43//13 44//12 46//14
f 45//15 46//14 48//16
f 47//17 48//16 50//18
f 49//19 50//18 52//20
f 51//21 52//20 38//22
f 38//22 52//20 53//6
f 52//20 50//18 53//6
f 50//18 48//16 53//6
f 48//16 46//14 53//6
f 46//14 44//12 53//6
f 44//12 42//10 53//6
f 42//10 40//8 53//6
f 40//8 38//22 53//6
o 11_146_187
v -1.500000 -13.500000 1.000000
v -13.500000 -13.500000 2.000000
v -2.500000 -13.500000 2.000000
v -1.500000 -13.500000 4.000000
v -2.500000 -13.500000 4.000000
v -1.500000 -13.500000 5.000000
v 2.500000 -13.500000 4.000000
v 1.500000 -13.500000 5.000000
v 1.500000 -13.500000 4.000000
v 1.500000 -13.500000 1.000000
v 13.500000 -13.500000 1.000000
v 13.500000 -3.500001 6.000000
v 2.500000 -13.500000 2.000000
v 13.500000 -2.500001 7.000000
v 13.500000 -6.500001 6.000000
v -2.500000 -13.500000 10.000000
v -1.500000 -13.500000 11.000000
v 1.500000 -13.500000 11.000000
v -1.500000 -13.500000 10.000000
v -1.500000 -13.500000 7.000000
v 2.500000 -13.500000 10.000000
v 1.500000 -13.500000 10.000000
v 1.500000 -13.500000 7.000000
v -2.500000 -13.500000 7.000000
v -1.500000 -13.500000 6.000000
v 2.500000 -13.500000 7.000000
v 1.500000 -13.500000 6.000000
v 13.500000 -2.500001 2.000000
v 13.500000 -13.500001 2.000000
v 13.500000 -1.500001 1.000000
v 13.500000 -7.500001 7.000000
v 13.500000 -1.500001 4.000000
v 13.500000 -2.500001 4.000000
v 13.500000 -1.500001 5.000000
v 13.500000 2.499999 4.000000
v 13.500000 1.499999 5.000000
v 13.500000 1.499999 4.000000
v 13.500000 1.499999 1.000000
v 13.500001 13.500000 1.000000
v 13.500000 2.499999 2.000000
v 13.500000 -3.500001 7.000000
v 13.500000 -3.500001 10.000000
v 13.500000 2.499999 10.000000
v 13.500000 3.499999 11.000000
v 13.500000 6.499999 11.000000
v 13.500000 3.499999 10.000000
v 13.500000 3.499999 7.000000
v 13.500000 7.499999 10.000000
v 13.500000 6.499999 10.000000
v 13.500000 6.499999 7.000000
v 13.500000 2.499999 7.000000
v 13.500000 3.499999 6.000000
v 13.500000 7.499999 7.000000
v 13.500000 6.499999 6.000000
v 13.500000 -2.500001 10.000000
v 1.500002 13.500000 1.000000
v 13.500002 13.499998 2.000000
v 2.500002 13.500000 2.000000
v 1.500002 13.500000 4.000000
v 2.500002 13.500000 4.000000
v 1.500002 13.500000 5.000000
v -2.499998 13.500000 4.000000
v -1.499998 13.500000 5.000000
v -1.499998 13.500000 4.000000
v -1.499998 13.500000 1.000000
v 13.500000 -6.500001 7.000000
v -2.499998 13.500000 2.000000
v 13.500000 -6.500001 10.000000
v 13.500000 -3.500001 11.000000
v 13.500000 -6.500001 11.000000
v 2.500002 13.500000 10.000000
v 1.500002 13.500000 11.000000
v -1.499998 13.500000 11.000000
v 1.500002 13.500000 10.000000
v 1.500002 13.500000 7.000000
v -2.499998 13.500000 10.000000
v -1.499998 13.500000 10.000000
v -1.499998 13.500000 7.000000
v 2.500002 13.500000 7.000000
v 1.500002 13.500000 6.000000
v -2.499998 13.500000 7.000000
v -1.499998 13.500000 6.000000
v -13.500000 2.500003 2.000000
v -13.499998 13.500003 2.000000
v -13.500000 1.500003 1.000000
v -13.499998 13.500003 1.000000
v -13.500000 1.500003 4.000000
v -13.500000 2.500003 4.000000
v -13.500000 1.500003 5.000000
v -13.500000 -2.499997 4.000000
v -13.500000 -1.499997 5.000000
v -13.500000 -1.499997 4.000000
v -13.500000 -1.499997 1.000000
v -13.500003 -13.499998 1.000000
v 13.500000 -7.500001 10.000000
v -13.500000 -2.499997 2.000000
v -13.500000 7.500003 10.000000
v -13.500000 6.500003 11.000000
v -13.500000 3.500003 11.000000
v -13.500000 6.500003 10.000000
v -13.500000 6.500003 7.000000
v -13.500000 2.500003 10.000000
v -13.500000 3.500003 10.000000
v -13.500000 3.500003 7.000000
v -13.500000 7.500003 7.000000
v -13.500000 6.500003 6.000000
v -13.500000 2.500003 7.000000
v -13.500000 3.500003 6.000000
v -13.500000 -2.499997 10.000000
v -13.500000 -3.499997 11.000000
v -13.500000 -6.499997 11.000000
v -13.500000 -3.499997 10.000000
v -13.500000 -3.499997 7.000000
v -13.500000 -7.499997 10.000000
v -13.500000 -6.499997 10.000000
v -13.500000 -6.499997 7.000000
v -13.500000 -2.499997 7.000000
v -13.500000 -3.499997 6.000000
v -13.500000 -7.499997 7.000000
v -13.500000 -6.499997 6.000000
v -16.500000 16.500000 13.000000
v 16.500000 16.500000 13.000000
v -16.500000 -16.500000 13.000000
v 16.500000 -16.500000 13.000000
v -16.500000 16.500000 14.000000
v 16.500000 16.500000 14.000000
v 16.500000 -16.500000 14.000000
v -16.500000 -16.500000 14.000000
v -1.500000 -11.500000 13.000000
v -11.500000 -11.500000 14.000000
v -2.500000 -11.500000 14.000000
v -1.500000 -11.500000 16.000000
v -2.500000 -11.500000 16.000000
v -1.500000 -11.500000 17.000000
v 2.500000 -11.500000 16.000000
v 1.500000 -11.500000 17.000000
v 1.500000 -11.500000 16.000000
v 1.500000 -11.500000 13.000000
v 11.500000 -11.500000 13.000000
v 11.500000 -3.500001 18.000000
v 2.500000 -11.500000 14.000000
v 11.500000 -2.500001 19.000000
v 11.500000 -6.500001 18.000000
v -2.500000 -11.500000 22.000000
v -1.500000 -11.500000 23.000000
v 1.500000 -11.500000 23.000000
v -1.500000 -11.500000 22.000000
v -1.500000 -11.500000 19.000000
v 2.500000 -11.500000 22.000000
v 1.500000 -11.500000 22.000000
v 1.500000 -11.500000 19.000000
v -2.500000 -11.500000 19.000000
v -1.500000 -11.500000 18.000000
v 2.500000 -11.500000 19.000000
v 1.500000 -11.500000 18.000000
v 11.500000 -2.500001 14.000000
v 11.500000 -11.500001 14.000000
v 11.500000 -1.500001 13.000000
v 11.500000 -7.500001 19.000000
v 11.500000 -1.500001 16.000000
v 11.500000 -2.500001 16.000000
v 11.500000 -1.500001 17.000000
v 11.500000 2.499999 16.000000
v 11.500000 1.499999 17.000000
v 11.500000 1.499999 16.000000
v 11.500000 1.499999 13.000000
v 11.500001 11.500000 13.000000
v 11.500000 2.499999 14.000000
v 11.500000 -3.500001 19.000000
v 11.500000 -3.500001 22.000000
v 11.500000 2.499999 22.000000
v 11.500000 3.499999 23.000000
v 11.500000 6.499999 23.000000
v 11.500000 3.499999 22.000000
v 11.500000 3.499999 19.000000
v 11.500000 7.499999 22.000000
v 11.500000 6.499999 22.000000
v 11.500000 6.499999 19.000000
v 11.500000 2.499999 19.000000
v 11.500000 3.499999 18.000000
v 11.500000 7.499999 19.000000
v 11.500000 6.499999 18.000000
v 11.500000 -2.500001 22.000000
v 1.500002 11.500000 13.000000
v 11.500002 11.499998 14.000000
v 2.500002 11.500000 14.000000
v 1.500002 11.500000 16.000000
v 2.500002 11.500000 16.000000
v 1.500002 11.500000 17.000000
v -2.499998 11.500000 16.000000
v -1.499998 11.500000 17.000000
v -1.499998 11.500000 16.000000
v -1.499998 11.500000 13.000000
v 11.500000 -6.500001 19.000000
v -2.499998 11.500000 14.000000
v 11.500000 -6.500001 22.000000
v 11.500000 -3.500001 23.000000
v 11.500000 -6.500001 23.000000
v 2.500002 11.500000 22.000000
v 1.500002 11.500000 23.000000
v -1.499998 11.500000 23.000000
v 1.500002 11.500000 22.000000
v 1.500002 11.500000 19.000000
v -2.499998 11.500000 22.000000
v -1.499998 11.500000 22.000000
v -1.499998 11.500000 19.000000
v 2.500002 11.500000 19.000000
v 1.500002 11.500000 18.000000
v -2.499998 11.500000 19.000000
v -1.499998 11.500000 18.000000
v -11.500000 2.500003 14.000000
v -11.499998 11.500003 14.000000
v -11.500000 1.500003 13.000000
v -11.499998 11.500003 13.000000
v -11.500000 1.500003 16.000000
v -11.500000 2.500003 16.000000
v -11.500000 1.500003 17.000000
v -11.500000 -2.499997 16.000000
v -11.500000 -1.499997 17.000000
v -11.500000 -1.499997 16.000000
v -11.500000 -1.499997 13.000000
v -11.500003 -11.499998 13.000000
v 11.500000 -7.500001 22.000000
v -11.500000 -2.499997 14.000000
v -11.500000 7.500003 23.000000
v -11.500000 6.500003 24.000000
v -11.500000 3.500003 24.000000
v -11.500000 6.500003 22.000000
v -11.500000 6.500003 19.000000
v -11.500000 2.500003 23.000000
v -11.500000 3.500003 23.000000
v -11.500000 3.500003 20.000000
v -11.500000 7.500003 19.000000
v -11.500000 6.500003 18.000000
v -11.500000 2.500003 20.000000
v -11.500000 3.500003 18.000000
v -11.500000 -2.499997 23.000000
v -11.500000 -3.499997 24.000000
v -11.500000 -6.499997 24.000000
v -11.500000 -3.499997 22.000000
v -11.500000 -3.499997 19.000000
v -11.500000 -7.499997 23.000000
v -11.500000 -6.499997 23.000000
v -11.500000 -6.499997 20.000000
v -11.500000 -2.499997 19.000000
v -11.500000 -3.499997 18.000000
v -11.500000 -7.499997 20.000000
v -11.500000 -6.499997 18.000000
v -14.500000 14.500000 25.000000
v 14.500000 14.500000 25.000000
v -14.500000 -14.500000 25.000000
v 14.500000 -14.500000 25.000000
v -14.500000 14.500000 26.000000
v 14.500000 14.500000 26.000000
v 14.500000 -14.500000 26.000000
v -14.500000 -14.500000 26.000000
v -21.500000 21.500000 2.000000
v -21.500000 -21.500000 2.000000
v 21.500000 21.500000 2.000000
v 21.500000 -21.500000 2.000000
v 21.500000 21.500000 -8.000000
v -21.500000 21.500000 -8.000000
v -21.500000 -21.500000 -8.000000
v 21.500000 -21.500000 -8.000000
vn -0.0000 -1.0000 -0.0000
vn 1.0000 -0.0000 -0.0000
vn -0.0000 1.0000 -0.0000
vn -1.0000 -0.0000 -0.0000
vn -0.7071 -0.7071 -0.0000
vn 0.7071 -0.7071 -0.0000
vn 0.7071 0.7071 -0.0000
vn -0.7071 0.7071 -0.0000
s 0
f 54//23 56//23 55//23 147//23
f 57//23 58//23 56//23 54//23
f 59//23 58//23 60//23 61//23
f 63//23 64//23 82//23 66//23
f 62//23 63//23 66//23 60//23
f 70//23 69//23 74//23 71//23
f 72//23 69//23 77//23 73//23
f 75//23 76//23 79//23 74//23
f 78//23 80//23 79//23 77//23
f 83//24 81//24 82//24 64//24
f 85//24 86//24 81//24 83//24
f 87//24 86//24 88//24 89//24
f 91//24 92//24 110//24 93//24
f 90//24 91//24 93//24 88//24
f 97//24 96//24 101//24 98//24
f 99//24 96//24 104//24 100//24
f 102//24 103//24 106//24 101//24
f 105//24 107//24 106//24 104//24
f 109//25 111//25 110//25 92//25
f 112//25 113//25 111//25 109//25
f 114//25 113//25 115//25 116//25
f 118//25 139//25 137//25 120//25
f 117//25 118//25 120//25 115//25
f 125//25 124//25 129//25 126//25
f 127//25 124//25 132//25 128//25
f 130//25 131//25 134//25 129//25
f 133//25 135//25 134//25 132//25
f 138//26 136//26 137//26 139//26
f 140//26 141//26 136//26 138//26
f 142//26 141//26 143//26 144//26
f 146//26 147//26 55//26 149//26
f 145//26 146//26 149//26 143//26
f 151//26 150//26 155//26 152//26
f 153//26 150//26 158//26 154//26
f 156//26 157//26 160//26 155//26
f 159//26 161//26 160//26 158//26
f 123//24 148//24 108//24 122//24
f 121//24 148//24 84//24 119//24
f 95//24 94//24 67//24 108//24
f 68//24 65//24 67//24 84//24
f 163//26 162//26 167//26 164//26
f 165//26 162//26 170//26 166//26
f 168//26 169//26 172//26 167//26
f 171//26 173//26 172//26 170//26
f 176//23 177//23 180//23 181//23
f 175//25 174//25 178//25 179//25
f 174//26 176//26 181//26 178//26
f 177//24 175//24 179//24 180//24
f 182//23 184//23 183//23 275//23
f 185//23 186//23 184//23 182//23
f 187//23 186//23 188//23 189//23
f 191//23 192//23 210//23 194//23
f 190//23 191//23 194//23 188//23
f 198//23 197//23 202//23 199//23
f 200//23 197//23 205//23 201//23
f 203//23 204//23 207//23 202//23
f 206//23 208//23 207//23 205//23
f 211//24 209//24 210//24 192//24
f 213//24 214//24 209//24 211//24
f 215//24 214//24 216//24 217//24
f 219//24 220//24 238//24 221//24
f 218//24 219//24 221//24 216//24
f 225//24 224//24 229//24 226//24
f 227//24 224//24 232//24 228//24
f 230//24 231//24 234//24 229//24
f 233//24 235//24 234//24 232//24
f 237//25 239//25 238//25 220//25
f 240//25 241//25 239//25 237//25
f 242//25 241//25 243//25 244//25
f 246//25 267//25 265//25 248//25
f 245//25 246//25 248//25 243//25
f 253//25 252//25 257//25 254//25
f 255//25 252//25 260//25 256//25
f 258//25 259//25 262//25 257//25
f 261//25 263//25 262//25 260//25
f 266//26 264//26 265//26 267//26
f 268//26 269//26 264//26 266//26
f 270//26 269//26 271//26 272//26
f 274//26 275//26 183//26 277//26
f 273//26 274//26 277//26 271//26
f 279//26 278//26 283//26 280//26
f 281//26 278//26 286//26 282//26
f 284//26 285//26 288//26 283//26
f 287//26 289//26 288//26 286//26
f 251//24 276//24 236//24 250//24
f 249//24 276//24 212//24 247//24
f 223//24 222//24 195//24 236//24
f 196//24 193//24 195//24 212//24
f 291//26 290//26 295//26 292//26
f 293//26 290//26 298//26 294//26
f 296//26 297//26 300//26 295//26
f 299//26 301//26 300//26 298//26
f 304//23 305//23 308//23 309//23
f 303//25 302//25 306//25 307//25
f 302//26 304//26 309//26 306//26
f 305//24 303//24 307//24 308//24
s 1
f 311//27 316//27 317//28 313//28
f 312//29 314//29 315//30 310//30
f 313//28 317//28 314//29 312//29
f 310//30 315//30 316//27 311//27
o Glow
v -1.500000 -13.500000 1.000000
v -1.500000 -13.500000 4.000000
v 1.500000 -13.500000 4.000000
v 1.500000 -13.500000 1.000000
v -1.500000 -13.500000 10.000000
v -1.500000 -13.500000 7.000000
v 1.500000 -13.500000 10.000000
v 1.500000 -13.500000 7.000000
v 13.500000 -1.500001 1.000000
v 13.500000 -1.500001 4.000000
v 13.500000 1.499999 4.000000
v 13.500000 1.499999 1.000000
v 13.500000 -3.500001 7.000000
v 13.500000 -3.500001 10.000000
v 13.500000 3.499999 10.000000
v 13.500000 3.499999 7.000000
v 13.500000 6.499999 10.000000
v 13.500000 6.499999 7.000000
v 1.500002 13.500000 1.000000
v 1.500002 13.500000 4.000000
v -1.499998 13.500000 4.000000
v -1.499998 13.500000 1.000000
v 13.500000 -6.500001 7.000000
v 13.500000 -6.500001 10.000000
v 1.500002 13.500000 10.000000
v 1.500002 13.500000 7.000000
v -1.499998 13.500000 10.000000
v -1.499998 13.500000 7.000000
v -13.500000 1.500003 1.000000
v -13.500000 1.500003 4.000000
v -13.500000 -1.499997 4.000000
v -13.500000 -1.499997 1.000000
v -13.500000 6.500003 10.000000
v -13.500000 6.500003 7.000000
v -13.500000 3.500003 10.000000
v -13.500000 3.500003 7.000000
v -13.500000 -3.499997 10.000000
v -13.500000 -3.499997 7.000000
v -13.500000 -6.499997 10.000000
v -13.500000 -6.499997 7.000000
v -1.500000 -11.500000 13.000000
v -1.500000 -11.500000 16.000000
v 1.500000 -11.500000 16.000000
v 1.500000 -11.500000 13.000000
v -1.500000 -11.500000 22.000000
v -1.500000 -11.500000 19.000000
v 1.500000 -11.500000 22.000000
v 1.500000 -11.500000 19.000000
v 11.500000 -1.500001 13.000000
v 11.500000 -1.500001 16.000000
v 11.500000 1.499999 16.000000
v 11.500000 1.499999 13.000000
v 11.500000 -3.500001 19.000000
v 11.500000 -3.500001 22.000000
v 11.500000 3.499999 22.000000
v 11.500000 3.499999 19.000000
v 11.500000 6.499999 22.000000
v 11.500000 6.499999 19.000000
v 1.500002 11.500000 13.000000
v 1.500002 11.500000 16.000000
v -1.499998 11.500000 16.000000
v -1.499998 11.500000 13.000000
v 11.500000 -6.500001 19.000000
v 11.500000 -6.500001 22.000000
v 1.500002 11.500000 22.000000
v 1.500002 11.500000 19.000000
v -1.499998 11.500000 22.000000
v -1.499998 11.500000 19.000000
v -11.500000 1.500003 13.000000
v -11.500000 1.500003 16.000000
v -11.500000 -1.499997 16.000000
v -11.500000 -1.499997 13.000000
v -11.500000 6.500003 22.000000
v -11.500000 6.500003 19.000000
v -11.500000 3.500003 22.000000
v -11.500000 3.500003 19.000000
v -11.500000 -3.499997 22.000000
v -11.500000 -3.499997 19.000000
v -11.500000 -6.499997 22.000000
v -11.500000 -6.499997 19.000000
vn -0.0000 -1.0000 -0.0000
vn 1.0000 -0.0000 -0.0000
vn -0.0000 1.0000 -0.0000
vn -1.0000 -0.0000 -0.0000
s 0
f 320//31 319//31 318//31 321//31
f 322//31 323//31 325//31 324//31
f 328//32 327//32 326//32 329//32
f 332//32 333//32 335//32 334//32
f 338//33 337//33 336//33 339//33
f 342//33 343//33 345//33 344//33
f 348//34 347//34 346//34 349//34
f 350//34 351//34 353//34 352//34
f 341//32 340//32 330//32 331//32
f 354//34 355//34 357//34 356//34
f 360//31 359//31 358//31 361//31
f 362//31 363//31 365//31 364//31
f 368//32 367//32 366//32 369//32
f 372//32 373//32 375//32 374//32
f 378//33 377//33 376//33 379//33
f 382//33 383//33 385//33 384//33
f 388//34 387//34 386//34 389//34
f 390//34 391//34 393//34 392//34
f 381//32 380//32 370//32 371//32
f 394//34 395//34 397//34 396//34
