# Blender 4.0.2
# www.blender.org
o 55_34_32
v 4.583673 -2.023841 12.075230
v 2.796775 -1.971031 8.675249
v 0.130603 3.123461 10.552462
v 2.777787 1.795150 8.900269
v -1.254672 -2.464553 12.864667
v 2.443715 -2.809228 14.327894
v -2.490352 -2.505429 17.582880
v 1.312521 -0.462026 18.341013
v 5.394847 3.467124 16.324224
v 3.992376 2.068353 13.996899
v -0.174001 3.739167 -8.281981
v 3.655940 0.066843 -8.353929
v 0.183083 -3.703707 -8.340870
v -3.649561 0.057082 -8.125357
v -9.769140 4.254962 23.510063
v -10.107554 0.700385 25.113279
v -10.873705 1.635792 21.782524
v -15.701206 7.000618 29.704639
v -13.359118 4.936497 28.953436
v -15.712667 4.088346 27.439190
v -14.070798 6.106727 33.950611
v -15.586788 5.069827 34.510929
v 3.546016 4.891064 19.356836
v 8.079524 4.116474 19.164513
v 4.313796 2.993076 20.786123
v 9.469185 12.306007 26.796953
v 10.969481 13.648197 25.308693
v 12.703499 11.970101 25.609535
v 11.279087 10.803842 27.289217
v 13.370955 13.283663 31.649529
v 11.504487 16.798622 33.582554
v 11.586877 15.008470 34.040134
v 2.443537 -4.227890 18.771429
v -0.854191 -10.481255 23.698339
v -0.077217 -5.244345 23.757465
v 1.929686 -9.121767 23.587290
v -1.970925 -8.228651 25.678833
v 0.357521 -7.277802 31.754528
v 1.671924 -10.501725 31.994251
v -0.501996 -10.063537 31.288830
v -2.014196 -11.125816 36.675900
v 9.430083 2.376263 14.899508
v 8.651584 -0.591339 13.281208
v 12.196840 1.155543 21.701775
v -0.674964 2.234195 18.530603
v 5.700233 2.203846 14.565385
v 5.315812 -0.025241 19.151245
v -1.907048 0.765552 16.618431
v -4.188406 -1.505145 21.501616
v -2.535057 -11.524503 37.170887
vn 0.3178 0.9198 -0.2303
vn -0.0333 -0.9883 -0.1486
vn -0.1207 0.8233 -0.5546
vn -0.0508 0.0055 -0.9987
vn -0.0117 0.0073 -0.9999
vn 0.9987 0.0020 0.0506
vn -0.7005 -0.7136 -0.0058
vn 0.1918 -0.9789 0.0702
vn -0.9568 -0.2809 0.0754
vn -0.7162 0.6973 0.0305
vn 0.5052 -0.0545 0.8613
vn 0.6784 0.6359 0.3678
vn -0.4740 0.5418 -0.6941
vn -0.8215 0.0915 0.5628
vn 0.5127 0.3929 -0.7634
vn -0.7206 0.6848 -0.1088
vn 0.7564 -0.6190 0.2116
vn -0.6987 0.7127 -0.0616
vn 0.8444 0.1688 0.5084
vn 0.3074 -0.6836 -0.6619
vn -0.0228 -0.6113 -0.7911
vn 0.4306 -0.8926 -0.1333
vn 0.9198 0.3818 0.0909
vn -0.8691 -0.4900 0.0673
vn -0.7401 -0.1853 0.6465
vn 0.7441 -0.1928 0.6396
vn -0.1137 0.9817 -0.1530
vn -0.2034 0.0507 0.9778
vn 0.8203 -0.5449 -0.1739
vn -0.2377 0.8216 0.5181
vn -0.9630 0.0976 -0.2513
vn -0.7629 0.6465 -0.0050
vn -0.6444 -0.7599 -0.0852
vn 0.2573 0.6907 0.6758
vn 0.6086 0.7934 -0.0148
vn -0.0952 0.8775 -0.4700
vn -0.4264 -0.9033 -0.0467
vn -0.7261 0.6868 0.0342
vn 0.7348 -0.6769 -0.0439
vn 0.5087 0.3188 0.7997
vn 0.5078 0.3136 0.8024
vn 0.3946 -0.9011 0.1798
vn -0.5043 -0.1603 -0.8486
vn -0.3483 0.6140 -0.7083
vn -0.5466 -0.8305 -0.1075
vn -0.4463 0.6162 -0.6489
vn -0.1648 -0.7289 0.6645
vn 0.8332 0.1595 0.5295
vn 0.6429 0.7610 -0.0867
vn -0.9998 -0.0111 0.0193
vn -0.4225 -0.7606 0.4930
vn -0.4403 0.8295 0.3437
vn -0.7406 0.1865 0.6455
vn -0.3885 0.7201 -0.5749
vn -0.4642 -0.2844 0.8388
vn 0.6987 0.1608 -0.6971
vn -0.1980 -0.5169 0.8329
vn 0.8247 -0.5507 0.1285
vn 0.7565 0.6036 -0.2518
vn 0.6870 -0.7222 0.0811
vn -0.9968 -0.0268 0.0747
vn 0.7954 0.3743 0.4767
vn 0.7913 0.3723 0.4850
vn 0.7936 0.3736 0.4802
vn -0.9037 0.3901 -0.1767
vn -0.5404 0.6703 0.5085
vn -0.9337 -0.3179 -0.1649
vn 0.8873 0.4563 0.0678
vn -0.7653 0.6127 0.1974
vn -0.2170 -0.9741 0.0637
vn -0.9201 0.2310 0.3165
vn 0.7171 0.3377 0.6097
vn 0.6277 0.1389 -0.7660
vn 0.3803 -0.8998 -0.2138
vn 0.8081 -0.4464 -0.3844
vn 0.8060 -0.4430 -0.3926
vn 0.8060 -0.4429 -0.3927
vn -0.2518 -0.4409 0.8615
vn -0.0416 0.9979 -0.0505
vn -0.0632 0.9775 0.2011
vn 0.9236 -0.0341 -0.3818
vn 0.3145 -0.9471 0.0641
vn 0.2184 -0.9672 -0.1298
vn 0.0315 -0.9522 -0.3040
vn -0.3091 -0.9468 -0.0891
vn -0.1184 -0.5030 0.8561
vn 0.6949 -0.4619 -0.5512
vn -0.1018 -0.1443 0.9843
vn 0.8236 0.3164 0.4707
vn 0.8221 0.3155 0.4740
vn 0.8207 0.3148 0.4768
vn -0.9036 0.3901 -0.1768
vn -0.9036 0.3901 -0.1767
vn 0.0007 -0.9811 -0.1933
vn 0.9209 -0.2161 -0.3242
vn 0.9209 -0.2161 -0.3243
s 0
f 46//1 4//1 3//1
f 5//2 2//2 6//2
f 48//3 15//3 45//3
f 11//4 13//4 14//4
f 12//5 13//5 11//5
f 4//6 2//6 12//6
f 5//7 14//7 13//7
f 5//8 13//8 2//8
f 5//9 48//9 14//9
f 48//10 3//10 14//10
f 16//11 49//11 8//11
f 19//12 15//12 18//12
f 20//13 18//13 15//13
f 26//14 23//14 25//14
f 28//15 9//15 27//15
f 26//16 27//16 23//16
f 29//17 24//17 28//17
f 27//18 26//18 32//18
f 31//19 32//19 30//19
f 36//20 34//20 33//20
f 33//21 34//21 7//21
f 34//22 36//22 39//22
f 38//23 39//23 36//23
f 40//24 37//24 34//24
f 44//25 46//25 1//25
f 1//26 10//26 6//26
f 10//27 45//27 23//27
f 8//28 33//28 47//28
f 6//29 47//29 33//29
f 10//30 46//30 3//30
f 5//31 7//31 48//31
f 48//32 45//32 3//32
f 35//33 49//33 7//33
f 49//34 35//34 8//34
f 4//35 11//35 3//35
f 23//36 9//36 10//36
f 49//37 17//37 7//37
f 14//38 3//38 11//38
f 12//39 2//39 13//39
f 45//40 15//40 8//40
f 15//41 16//41 8//41
f 19//42 22//42 20//42
f 7//43 17//43 48//43
f 48//44 17//44 15//44
f 16//45 20//45 17//45
f 17//46 20//46 15//46
f 19//47 20//47 16//47
f 19//48 16//48 15//48
f 18//49 21//49 19//49
f 22//50 18//50 20//50
f 30//51 26//51 29//51
f 18//52 22//52 21//52
f 8//53 25//53 23//53
f 23//54 27//54 9//54
f 29//55 26//55 25//55
f 28//56 24//56 9//56
f 29//57 25//57 47//57
f 29//58 47//58 24//58
f 27//59 30//59 28//59
f 28//60 30//60 29//60
f 31//61 27//61 32//61
f 35//62 33//63 8//64
f 40//65 41//65 38//65
f 7//66 37//66 35//66
f 34//67 37//67 7//67
f 35//68 38//68 36//68
f 37//69 38//69 35//69
f 39//70 40//70 34//70
f 40//71 38//71 37//71
f 41//72 39//72 38//72
f 4//73 43//73 2//73
f 43//74 1//74 2//74
f 47//75 10//76 9//77
f 1//78 46//78 10//78
f 46//79 42//79 4//79
f 46//80 44//80 42//80
f 44//81 43//81 42//81
f 43//82 44//82 1//82
f 6//83 2//83 1//83
f 6//84 33//84 5//84
f 7//85 5//85 33//85
f 25//86 8//86 47//86
f 9//87 24//87 47//87
f 23//88 45//88 8//88
f 10//27 3//27 45//27
f 4//35 12//35 11//35
f 49//37 16//37 17//37
f 19//42 21//42 22//42
f 30//51 32//51 26//51
f 27//59 31//59 30//59
f 35//89 36//90 33//91
f 40//92 50//93 41//65
f 40//94 39//94 41//94
f 4//73 42//73 43//73
f 47//95 6//96 10//96
