# Blender 4.0.2
# www.blender.org
o InstCol
v 4.520768 -2.717304 10.137874
v -4.276705 -2.402697 9.632188
v -0.447675 -16.819283 13.545241
v -0.173264 3.005594 5.143929
v -5.029233 -1.021688 11.615770
v 1.489127 4.534538 11.123759
v -10.732910 12.360923 14.931010
v 2.099661 -2.042437 6.756850
v 2.936651 4.038338 13.053710
v 1.911868 -4.231918 12.575001
v 15.824065 -1.814171 16.279318
v -2.848711 0.085358 8.326161
v 0.547251 -4.827281 14.452770
v -4.152970 1.779585 13.987005
v -12.545023 -9.098452 17.591162
v 2.099854 1.811011 9.853044
v -3.565238 3.103580 15.814004
v 4.149061 1.452711 15.360833
v 3.020455 14.772450 18.867544
v -0.316262 -2.679358 11.338642
v 4.597568 0.116561 17.138435
v -2.021916 -3.769096 16.697515
v 7.541871 -12.583359 20.109417
v -1.534053 2.130115 12.784074
v -3.221843 -3.105269 18.427055
v -1.026569 4.032929 17.998058
v -13.680909 4.070991 21.317709
v 2.500544 -0.519992 14.190426
v 0.270582 4.345303 19.680838
v 3.387036 -2.218666 19.263439
v 12.490685 6.070799 22.493336
v -2.135728 -1.270364 15.558753
v 2.661718 -3.295294 20.900719
v -3.888143 -0.634308 20.494604
v -4.971339 -12.564600 23.637173
v 0.697318 2.315059 16.890085
v -4.075366 0.614799 22.087618
v 2.372589 3.010465 21.692484
v -4.691200 12.281549 24.750084
v 1.021234 -2.119194 18.185423
v 3.327854 2.237363 23.242428
v 0.276379 -3.719133 22.857975
v 11.437373 -5.727999 25.832909
v -2.125464 0.849197 19.445736
v -0.917064 -3.792311 24.366011
v -2.642605 2.486584 23.991955
v -11.970146 -3.407494 26.886452
v 2.082985 0.787671 20.671974
v -1.834485 3.323447 25.459217
v 3.530132 -0.047165 25.095276
v 6.348266 10.311747 27.911516
v -0.976730 -1.934093 21.865057
v 3.500368 -1.178675 26.522869
v -2.563638 -2.286259 26.168764
v 2.222695 -11.570231 28.908861
v -0.570408 2.029515 23.025883
v -3.285944 -1.454915 27.557758
v 0.336638 3.325129 27.213230
v -9.198908 6.840045 29.879236
v 1.743073 -1.081152 24.155323
v 1.401224 3.203414 28.564669
v 1.943839 -2.606802 28.229454
v 11.095046 1.138499 30.823383
v -1.961107 -0.369940 25.254225
v 1.100076 -3.219155 29.544352
v -3.107842 0.592662 29.218203
v -7.211704 -8.108756 31.741997
v 1.163819 1.554300 26.323418
v -2.904954 1.586527 30.497551
v 2.619170 1.617363 30.180220
v -0.155392 10.557211 32.635777
v 0.186557 -1.879997 27.363701
v 3.126806 0.770989 31.424976
v -0.816113 -2.881737 31.116224
v 7.049953 -7.471957 33.505394
v -1.369436 1.226161 28.375858
v -1.736569 -2.608152 32.327328
v -1.308459 2.603824 32.026924
v -9.968646 0.727207 34.351494
v 1.788334 0.020343 29.360649
v -0.468288 3.012494 33.205280
v 2.650023 -1.008113 32.912998
v 7.629758 6.029940 35.174717
v -1.269649 -1.189935 30.318811
v 2.315845 -1.853488 34.059494
v -2.563782 -1.018412 33.775112
v -1.510810 -9.340555 35.975681
v 0.128820 1.688146 31.251070
v -2.879636 -0.192282 34.890614
v 1.170001 2.415629 34.613922
v -5.054971 7.694164 36.754993
v 1.017064 -1.295794 32.158123
v 1.939560 2.030524 35.699265
v 0.748207 -2.502006 35.430054
v 8.683397 -2.197780 37.513237
v -1.581316 0.261204 33.040649
v -0.057001 -2.731493 36.486050
v -2.181185 1.303279 36.224117
v -7.674204 -4.130202 38.250973
v 1.306146 0.851888 33.899319
v -1.754329 1.997126 37.251560
v 2.421391 0.498520 36.996716
v 2.791230 8.006834 38.968773
v -0.377199 -1.469606 34.734768
v 2.571164 -0.279810 37.996376
v -1.409557 -1.949056 37.748417
v 3.259773 -7.578832 39.667156
v -0.695261 1.302250 35.547630
v -2.028548 -1.489092 38.721054
v -0.269723 2.324715 38.479801
v -7.319691 3.294891 40.346661
v 1.354664 -0.477331 36.338516
v 0.476662 2.401540 39.426140
v 1.721360 -1.490556 39.191406
v 7.416861 2.446836 41.007793
v -1.285607 -0.547867 37.108017
v 1.236370 -2.036216 40.112160
v -2.214606 -0.061950 39.883774
v -3.712985 -6.629999 41.651047
v 0.562250 1.237994 37.856716
v -2.225281 0.648273 40.779629
v 1.548102 1.499944 40.557419
v -1.693611 7.196850 42.276913
v 0.410253 -1.257702 38.585167
v 2.022538 0.997423 41.429058
v -0.124869 -2.093561 41.212856
v 5.944999 -4.050166 42.885860
v -1.120937 0.632688 39.293926
v -0.795515 -2.044849 42.060925
v -1.286373 1.584057 41.850567
v -6.927027 -1.001490 43.478333
v 1.220003 0.282800 39.983521
v -0.773215 1.989875 42.675705
v 1.963957 -0.291014 42.471035
v 4.311452 5.271131 44.054794
v -0.689419 -1.004708 40.654472
vn -0.6844 -0.0820 -0.7245
vn -0.6844 -0.0819 -0.7245
vn -0.6774 -0.3548 -0.6444
vn -0.0466 0.2501 0.9671
vn -0.0206 0.6477 0.7616
vn 0.6159 -0.3833 -0.6883
vn 0.6403 -0.1347 -0.7562
vn 0.4493 0.5228 -0.7245
vn 0.4493 0.5227 -0.7245
vn 0.2598 0.7192 -0.6444
vn 0.2033 -0.1529 0.9671
vn 0.4527 -0.4637 0.7616
vn -0.7131 -0.1334 -0.6883
vn -0.5631 -0.3332 -0.7562
vn 0.0218 -0.6890 -0.7245
vn 0.0218 -0.6889 -0.7245
vn 0.2943 -0.7058 -0.6444
vn -0.2532 -0.0246 0.9671
vn -0.6470 0.0361 0.7616
vn 0.4357 0.5801 -0.6883
vn 0.1902 0.6261 -0.7562
vn -0.4815 0.4933 -0.7245
vn -0.4814 0.4933 -0.7245
vn -0.6937 0.3217 -0.6444
vn 0.1701 0.1892 0.9671
vn 0.5015 0.4104 0.7616
vn 0.0706 -0.7220 -0.6883
vn 0.2827 -0.5901 -0.7562
vn 0.6882 -0.0385 -0.7245
vn 0.7288 0.2314 -0.6444
vn 0.0024 -0.2544 0.9671
vn -0.0925 -0.6414 0.7616
vn -0.5397 0.4847 -0.6883
vn -0.6070 0.2442 -0.7562
vn -0.5398 0.4847 -0.6883
vn -0.5335 -0.4365 -0.7245
vn -0.3811 -0.6630 -0.6444
vn -0.1736 0.1860 0.9671
vn -0.3650 0.5354 0.7616
vn 0.7254 0.0072 -0.6883
vn 0.6126 0.2300 -0.7562
vn 0.0985 0.6822 -0.7245
vn -0.1668 0.7462 -0.6444
vn 0.2536 -0.0199 0.9671
vn 0.6308 -0.1482 0.7616
vn -0.5301 -0.4953 -0.6883
vn -0.2963 -0.5834 -0.7562
vn 0.3882 -0.5696 -0.7245
vn 0.6271 -0.4376 -0.6444
vn -0.2005 -0.1567 0.9671
vn -0.5653 -0.3168 0.7616
vn 0.0563 0.7233 -0.6883
vn -0.1755 0.6303 -0.7562
vn -0.6710 0.1578 -0.7245
vn -0.7580 -0.1009 -0.6444
vn 0.0420 0.2509 0.9671
vn 0.2028 0.6155 0.7616
vn 0.4471 -0.5713 -0.6883
vn 0.5552 -0.3462 -0.7562
vn 0.6014 0.3369 -0.7245
vn 0.6013 0.3369 -0.7245
vn 0.4907 0.5864 -0.6444
vn 0.1385 -0.2134 0.9671
vn 0.2662 -0.5908 0.7616
vn -0.7156 0.1193 -0.6883
vn -0.6433 -0.1198 -0.7562
vn -0.2158 -0.6546 -0.7245
vn -0.2159 -0.6546 -0.7245
vn 0.0343 -0.7639 -0.6444
vn -0.2463 0.0638 0.9671
vn -0.5954 0.2559 0.7616
vn 0.6082 0.3954 -0.6883
vn 0.3934 0.5228 -0.7562
vn -0.2830 0.6285 -0.7245
vn -0.5413 0.5401 -0.6444
vn 0.2247 0.1194 0.9671
vn 0.6118 0.2135 0.7616
vn -0.1814 -0.7024 -0.6883
vn 0.0631 -0.6513 -0.7562
vn 0.6333 -0.2722 -0.7245
vn 0.6332 -0.2723 -0.7245
vn 0.7640 -0.0326 -0.6444
vn -0.0850 -0.2398 0.9671
vn -0.3069 -0.5707 0.7616
vn -0.3407 0.6405 -0.6883
vn -0.4864 0.4376 -0.7562
vn -0.6508 -0.2270 -0.7245
vn -0.5854 -0.4920 -0.6444
vn -0.0993 0.2343 0.9671
vn -0.1592 0.6282 0.7616
vn 0.6839 -0.2421 -0.6883
vn 0.6543 0.0059 -0.7562
vn 0.3266 0.6070 -0.7245
vn 0.0993 0.7582 -0.6444
vn 0.2314 -0.1057 0.9671
vn 0.5417 -0.3556 0.7616
vn -0.6678 -0.2834 -0.6883
vn -0.4785 -0.4463 -0.7562
vn 0.1692 -0.6682 -0.7245
vn 0.4389 -0.6261 -0.6444
vn -0.2420 -0.0784 0.9671
vn -0.6397 -0.1037 0.7616
vn 0.3010 0.6601 -0.6883
vn 0.0513 0.6523 -0.7562
vn -0.5762 0.3784 -0.7245
vn -0.5761 0.3784 -0.7245
vn -0.7466 0.1652 -0.6444
vn 0.1255 0.2213 0.9671
vn 0.4016 0.5085 0.7616
vn 0.2240 -0.6900 -0.6883
vn 0.4028 -0.5157 -0.7562
vn 0.6804 0.1102 -0.7245
vn 0.6621 0.3825 -0.6444
vn 0.0569 -0.2480 0.9671
vn 0.0474 -0.6463 0.7616
vn -0.6312 0.3575 -0.6883
vn -0.6453 0.1082 -0.7562
vn -0.4273 -0.5409 -0.7245
vn -0.4273 -0.5408 -0.7245
vn -0.2298 -0.7293 -0.6444
vn -0.2095 0.1444 0.9671
vn -0.4715 0.4446 0.7616
vn 0.7070 0.1628 -0.6883
vn 0.5489 0.3561 -0.7562
vn -0.0503 0.6875 -0.7245
vn -0.0502 0.6874 -0.7245
vn -0.3232 0.6930 -0.6444
vn 0.2520 0.0350 0.9671
vn 0.6480 -0.0093 0.7616
vn -0.4113 -0.5976 -0.6883
vn -0.1642 -0.6334 -0.7562
vn 0.5014 -0.4730 -0.7245
vn 0.7064 -0.2927 -0.6444
vn -0.1621 -0.1961 0.9671
vn -0.4841 -0.4308 0.7616
vn -0.1003 0.7185 -0.6883
vn -0.3068 0.5779 -0.7562
vn -0.6892 0.0100 -0.7245
vn -0.7186 -0.2613 -0.6444
vn -0.0129 0.2541 0.9671
vn 0.0659 0.6447 0.7616
vn 0.5593 -0.4620 -0.6883
vn 0.6166 -0.2189 -0.7562
vn 0.5150 0.4582 -0.7245
vn 0.5150 0.4581 -0.7245
vn 0.3534 0.6781 -0.6444
vn 0.1811 -0.1787 0.9671
vn 0.3868 -0.5199 0.7616
vn -0.7245 -0.0371 -0.6883
vn -0.6025 -0.2551 -0.7562
vn -0.0702 -0.6857 -0.7245
vn -0.0703 -0.6857 -0.7245
vn 0.1975 -0.7387 -0.6444
vn -0.2542 0.0094 0.9671
vn -0.6364 0.1220 0.7616
vn 0.5091 0.5168 -0.6883
vn 0.2720 0.5951 -0.7562
vn -0.4114 0.5531 -0.7245
vn -0.6446 0.4113 -0.6444
vn 0.1938 0.1648 0.9671
vn 0.5517 0.3399 0.7616
vn -0.0263 -0.7250 -0.6883
vn 0.2014 -0.6225 -0.7562
vn 0.6769 -0.1299 -0.7245
vn 0.7532 0.1322 -0.6444
vn -0.0316 -0.2525 0.9671
vn -0.1772 -0.6233 0.7616
vn -0.4703 0.5524 -0.6883
vn -0.5690 0.3230 -0.7562
vn -0.5869 -0.3615 -0.7245
vn -0.5869 -0.3614 -0.7245
vn -0.4661 -0.6062 -0.6444
vn -0.1472 0.2075 0.9671
vn -0.2904 0.5793 0.7616
vn 0.7199 -0.0896 -0.6883
vn 0.6378 0.1462 -0.7562
vn 0.1886 0.6630 -0.7245
vn -0.0658 0.7618 -0.6444
vn 0.2487 -0.0535 0.9671
vn 0.6054 -0.2310 0.7616
vn -0.5914 -0.4202 -0.6883
vn -0.3715 -0.5386 -0.7562
vn 0.3088 -0.6163 -0.7245
vn 0.3087 -0.6163 -0.7245
vn 0.5631 -0.5173 -0.6444
vn -0.2196 -0.1285 0.9671
vn -0.6025 -0.2386 0.7616
vn 0.1522 0.7093 -0.6883
vn -0.0899 0.6481 -0.7562
vn -0.6440 0.2459 -0.7245
vn -0.6439 0.2459 -0.7245
vn -0.7647 0.0010 -0.6444
vn 0.0751 0.2431 0.9671
vn 0.2831 0.5829 0.7616
vn 0.3669 -0.6258 -0.6883
vn 0.5041 -0.4171 -0.7562
vn 0.6409 0.2537 -0.7245
vn 0.5645 0.5158 -0.6444
vn 0.1089 -0.2300 0.9671
vn 0.1850 -0.6210 0.7616
vn -0.6933 0.2136 -0.6883
vn -0.6535 -0.0329 -0.7562
vn -0.3012 -0.6200 -0.7245
vn -0.0679 -0.7616 -0.6444
vn -0.2356 0.0960 0.9671
vn -0.5559 0.3330 0.7616
vn 0.6555 0.3108 -0.6883
vn 0.4596 0.4657 -0.7562
vn -0.1967 0.6606 -0.7245
vn -0.4644 0.6075 -0.6444
vn 0.2386 0.0883 0.9671
vn 0.6348 0.1300 0.7616
vn -0.2734 -0.6720 -0.6883
vn -0.0243 -0.6539 -0.7562
vn 0.5913 -0.3543 -0.7245
vn 0.7528 -0.1342 -0.6444
vn -0.1163 -0.2263 0.9671
vn -0.3803 -0.5247 0.7616
vn -0.2523 0.6802 -0.6883
vn -0.4237 0.4986 -0.7562
s 0
f 2//1 4//2 3//3
f 1//4 2//4 3//4
f 1//5 4//5 2//5
f 3//6 4//7 1//6
f 6//8 8//9 7//10
f 5//11 6//11 7//11
f 5//12 8//12 6//12
f 7//13 8//14 5//13
f 10//15 12//16 11//17
f 9//18 10//18 11//18
f 9//19 12//19 10//19
f 11//20 12//21 9//20
f 14//22 16//23 15//24
f 13//25 14//25 15//25
f 13//26 16//26 14//26
f 15//27 16//28 13//27
f 18//29 20//29 19//30
f 17//31 18//31 19//31
f 17//32 20//32 18//32
f 19//33 20//34 17//35
f 22//36 24//36 23//37
f 21//38 22//38 23//38
f 21//39 24//39 22//39
f 23//40 24//41 21//40
f 26//42 28//42 27//43
f 25//44 26//44 27//44
f 25//45 28//45 26//45
f 27//46 28//47 25//46
f 30//48 32//48 31//49
f 29//50 30//50 31//50
f 29//51 32//51 30//51
f 31//52 32//53 29//52
f 34//54 36//54 35//55
f 33//56 34//56 35//56
f 33//57 36//57 34//57
f 35//58 36//59 33//58
f 38//60 40//61 39//62
f 37//63 38//63 39//63
f 37//64 40//64 38//64
f 39//65 40//66 37//65
f 42//67 44//68 43//69
f 41//70 42//70 43//70
f 41//71 44//71 42//71
f 43//72 44//73 41//72
f 46//74 48//74 47//75
f 45//76 46//76 47//76
f 45//77 48//77 46//77
f 47//78 48//79 45//78
f 50//80 52//81 51//82
f 49//83 50//83 51//83
f 49//84 52//84 50//84
f 51//85 52//86 49//85
f 54//87 56//87 55//88
f 53//89 54//89 55//89
f 53//90 56//90 54//90
f 55//91 56//92 53//91
f 58//93 60//93 59//94
f 57//95 58//95 59//95
f 57//96 60//96 58//96
f 59//97 60//98 57//97
f 62//99 64//99 63//100
f 61//101 62//101 63//101
f 61//102 64//102 62//102
f 63//103 64//104 61//103
f 66//105 68//106 67//107
f 65//108 66//108 67//108
f 65//109 68//109 66//109
f 67//110 68//111 65//110
f 70//112 72//112 71//113
f 69//114 70//114 71//114
f 69//115 72//115 70//115
f 71//116 72//117 69//116
f 74//118 76//119 75//120
f 73//121 74//121 75//121
f 73//122 76//122 74//122
f 75//123 76//124 73//123
f 78//125 80//126 79//127
f 77//128 78//128 79//128
f 77//129 80//129 78//129
f 79//130 80//131 77//130
f 82//132 84//132 83//133
f 81//134 82//134 83//134
f 81//135 84//135 82//135
f 83//136 84//137 81//136
f 86//138 88//138 87//139
f 85//140 86//140 87//140
f 85//141 88//141 86//141
f 87//142 88//143 85//142
f 90//144 92//145 91//146
f 89//147 90//147 91//147
f 89//148 92//148 90//148
f 91//149 92//150 89//149
f 94//151 96//152 95//153
f 93//154 94//154 95//154
f 93//155 96//155 94//155
f 95//156 96//157 93//156
f 98//158 100//158 99//159
f 97//160 98//160 99//160
f 97//161 100//161 98//161
f 99//162 100//163 97//162
f 102//164 104//164 103//165
f 101//166 102//166 103//166
f 101//167 104//167 102//167
f 103//168 104//169 101//168
f 106//170 108//171 107//172
f 105//173 106//173 107//173
f 105//174 108//174 106//174
f 107//175 108//176 105//175
f 110//177 112//177 111//178
f 109//179 110//179 111//179
f 109//180 112//180 110//180
f 111//181 112//182 109//181
f 114//183 116//184 115//185
f 113//186 114//186 115//186
f 113//187 116//187 114//187
f 115//188 116//189 113//188
f 118//190 120//191 119//192
f 117//193 118//193 119//193
f 117//194 120//194 118//194
f 119//195 120//196 117//195
f 122//197 124//197 123//198
f 121//199 122//199 123//199
f 121//200 124//200 122//200
f 123//201 124//202 121//201
f 126//203 128//203 127//204
f 125//205 126//205 127//205
f 125//206 128//206 126//206
f 127//207 128//208 125//207
f 130//209 132//209 131//210
f 129//211 130//211 131//211
f 129//212 132//212 130//212
f 131//213 132//214 129//213
f 134//215 136//215 135//216
f 133//217 134//217 135//217
f 133//218 136//218 134//218
f 135//219 136//220 133//219
o 79_102_105
v 0.000000 1.777009 -9.856075
v -0.496272 0.316974 41.222210
v 1.690037 0.549125 -9.856075
v 0.148100 0.569936 41.222210
v 1.044501 -1.437633 -9.856075
v 0.587803 0.035272 41.222210
v -1.044501 -1.437633 -9.856075
v 0.215182 -0.548131 41.222210
v -1.690037 0.549125 -9.856075
v -0.454813 -0.374029 41.222210
vn 0.3853 0.9226 0.0207
vn 0.9965 -0.0813 0.0207
vn 0.2306 -0.9728 0.0207
vn -0.8540 -0.5199 0.0207
vn -0.7583 0.6515 0.0207
vn -0.0000 -0.0000 1.0000
s 0
f 137//221 138//221 140//221 139//221
f 139//222 140//222 142//222 141//222
f 141//223 142//223 144//223 143//223
f 143//224 144//224 146//224 145//224
f 145//225 146//225 138//225 137//225
f 138//226 146//226 144//226 142//226 140//226
