# Blender v3.0.0 OBJ File: ''
# www.blender.org
mtllib house.mtl
o Cube.001
v 8.876101 8.876101 12.837138
v -8.876101 8.876101 12.837138
v -4.979038 0.000000 22.103399
v -8.876101 -8.876101 12.837138
v 8.876101 -8.876101 12.837138
v 4.979038 0.000000 22.103399
v 8.876101 -8.876101 -3.919484
v -8.876101 -8.876101 -3.919484
v -8.876101 8.876101 -3.919484
v 8.876101 8.876101 -3.919484
vt 0.875000 0.625000
vt 0.625000 0.750000
vt 0.625000 0.625000
vt 0.375000 1.000000
vt 0.375000 0.750000
vt 0.625000 0.000000
vt 0.625000 0.125000
vt 0.625000 0.250000
vt 0.375000 0.500000
vt 0.125000 0.750000
vt 0.125000 0.500000
vt 0.625000 0.500000
vt 0.375000 0.250000
vt 0.375000 0.000000
vt 0.875000 0.500000
vt 0.875000 0.750000
vt 0.625000 1.000000
vn 0.0000 -0.0000 1.0000
vn 0.0000 -0.7221 0.6917
vn 0.0000 -1.0000 0.0000
vn -0.9904 0.0000 0.1383
vn -0.9218 0.0000 0.3877
vn 0.0000 0.0000 -1.0000
vn 0.9904 0.0000 0.1383
vn 0.9218 0.0000 0.3877
vn 0.0000 1.0000 0.0000
vn -1.0000 0.0000 0.0000
vn 1.0000 0.0000 0.0000
vn 0.0000 0.7221 0.6917
usemtl Material.001
s 1
f 3/1/1 5/2/2 6/3/1
f 5/2/3 8/4/3 7/5/3
f 4/6/4 3/7/5 2/8/4
f 10/9/6 8/10/6 9/11/6
f 1/12/7 6/3/8 5/2/7
f 2/8/9 10/9/9 9/13/9
f 4/6/4 9/13/10 8/14/10
f 1/12/7 7/5/11 10/9/11
f 6/3/1 1/12/12 2/15/12
f 3/1/1 4/16/2 5/2/2
f 6/3/1 2/15/12 3/1/1
f 5/2/3 4/17/3 8/4/3
f 10/9/6 7/5/6 8/10/6
f 2/8/9 1/12/9 10/9/9
f 4/6/4 2/8/4 9/13/10
f 1/12/7 5/2/7 7/5/11
