# Blender v3.0.0 OBJ File: ''
# www.blender.org
o Cube.003
v -1.814604 0.110646 -2.712528
v 0.002174 1.562753 10.609200
v 0.161417 2.086320 -2.749529
v 2.137438 0.110646 -2.712528
v 1.363824 0.201342 10.634696
v 0.161417 -1.865030 -2.675528
v 0.002174 -1.160069 10.660192
v -1.359475 0.201342 10.634696
v -1.765975 -11.462813 12.558847
v -9.522135 0.240962 9.193778
v -0.028484 -9.251023 9.371544
v 0.054180 11.978812 11.981747
v -0.028484 9.732947 9.016011
v 9.465164 0.240963 9.193778
v 6.263892 0.262988 10.369893
v -0.028484 6.554262 10.252069
v 13.535484 1.245526 12.154263
v 0.141971 15.367683 17.018692
v 17.032104 -0.355504 16.854349
v -13.233879 1.081083 12.744585
v -2.845845 -13.345329 16.876486
v -16.808716 2.270498 18.296967
v 0.126243 -16.232351 34.672588
v 9.797964 0.393772 43.178391
v -1.009909 -8.386520 43.555328
v -0.173310 -16.022852 25.351990
v -16.800144 1.228834 36.291180
v -17.068426 4.313082 29.872881
v 18.031403 -0.333628 25.101107
v -0.441979 17.624346 33.618435
v -2.185088 17.178898 26.278412
v -0.217867 0.757482 46.887856
v -10.273464 1.652588 42.715527
v -0.009768 10.158854 43.467457
v 18.309916 -0.061841 34.471123
v -0.028484 -6.028285 10.487717
v -6.320862 0.262988 10.369893
vt 0.375000 0.250000
vt 0.625000 0.500000
vt 0.375000 0.500000
vt 0.375000 0.750000
vt 0.625000 0.750000
vt 0.375000 1.000000
vt 0.125000 0.750000
vt 0.125000 0.500000
vt 0.625000 0.000000
vt 0.375000 0.000000
vt 0.625000 0.250000
vt 0.625000 1.000000
vt 0.625000 0.000000
vt 0.375000 0.250000
vt 0.375000 0.000000
vt 0.625000 0.500000
vt 0.375000 0.500000
vt 0.375000 0.750000
vt 0.375000 0.750000
vt 0.375000 0.500000
vt 0.625000 0.750000
vt 0.625000 0.500000
vt 0.625000 0.750000
vt 0.625000 1.000000
vt 0.375000 1.000000
vt 0.625000 0.250000
vt 0.625000 0.000000
vt 0.625000 0.250000
vt 0.625000 1.000000
vt 0.625000 1.000000
vt 0.625000 0.750000
vt 0.625000 1.000000
vt 0.625000 0.000000
vt 0.625000 0.250000
vt 0.625000 0.250000
vt 0.625000 0.750000
vt 0.625000 1.000000
vt 0.625000 0.500000
vt 0.625000 0.500000
vt 0.625000 1.000000
vt 0.625000 0.250000
vt 0.625000 0.500000
vt 0.625000 0.750000
vt 0.625000 0.000000
vt 0.625000 0.500000
vt 0.625000 0.750000
vt 0.125000 0.750000
vt 0.125000 0.500000
vt 0.375000 0.250000
vt 0.375000 0.000000
vt 0.625000 0.250000
vt 0.625000 0.000000
vt 0.375000 1.000000
vn -0.8982 0.1977 -0.3926
vn -0.1957 0.9770 -0.0849
vn -0.2131 0.7630 -0.6102
vn 0.1967 0.9772 -0.0803
vn 0.8552 0.3379 -0.3931
vn 0.2154 0.7654 -0.6064
vn 0.9333 -0.3569 -0.0394
vn 0.3325 -0.7936 -0.5095
vn 0.9076 -0.0678 -0.4144
vn 0.0007 0.5089 -0.8608
vn 0.1244 -0.5841 -0.8021
vn -0.7101 -0.0125 -0.7040
vn -0.3554 -0.9334 -0.0499
vn -0.8968 -0.2104 -0.3893
vn -0.0834 -0.8360 -0.5423
vn -0.9801 0.1947 -0.0394
vn 0.9986 0.0293 -0.0449
vn 0.0310 -0.9983 -0.0485
vn 0.6820 0.1365 -0.7185
vn -0.9799 -0.1963 -0.0368
vn -0.1047 -0.7127 -0.6936
vn -0.3089 -0.1712 -0.9356
vn -0.1300 -0.2706 -0.9539
vn -0.2470 0.1434 -0.9583
vn -0.1780 0.6972 -0.6945
vn -0.2592 0.3056 -0.9162
vn 0.1669 0.6961 -0.6983
vn 0.2768 0.0738 -0.9581
vn 0.1987 0.3154 -0.9279
vn -0.1214 -0.0001 -0.9926
vn -0.2247 -0.1041 -0.9689
vn -0.0725 -0.2173 -0.9734
vn 0.7438 0.2654 -0.6135
vn 0.2350 0.8544 -0.4635
vn 0.9042 0.0051 -0.4270
vn 0.3107 -0.2158 -0.9257
vn 0.2374 -0.7967 -0.5558
vn 0.2813 -0.4432 -0.8511
vn -0.7591 -0.1502 -0.6335
vn -0.4072 -0.8234 -0.3951
vn -0.9229 -0.0267 -0.3841
vn 0.1886 -0.8079 -0.5583
vn 0.7833 -0.3512 -0.5129
vn -0.1126 -0.9448 -0.3078
vn -0.7071 0.1989 -0.6786
vn -0.0664 0.8813 -0.4679
vn -0.1683 0.7076 -0.6863
vn 0.2439 -0.8272 0.5061
vn 0.5553 -0.1423 0.8194
vn 0.0140 -0.5574 0.8302
vn -0.2733 -0.9576 -0.0906
vn -0.9047 -0.2867 0.3150
vn -0.9932 -0.0872 -0.0771
vn 0.9866 -0.1395 -0.0846
vn 0.2877 -0.8932 0.3456
vn 0.1001 -0.9890 -0.1086
vn -0.9635 0.2397 0.1192
vn -0.1639 0.8943 0.4164
vn -0.2322 0.9699 -0.0732
vn 0.0700 -0.0737 0.9948
vn -0.1342 0.8431 0.5207
vn -0.5588 0.2547 0.7892
vn -0.1235 0.5952 0.7940
vn 0.1829 0.8408 0.5095
vn 0.5658 0.1546 0.8099
vn 0.8460 0.1746 0.5037
vn -0.8071 -0.2478 0.5358
vn -0.2499 -0.5501 0.7968
vn -0.5650 0.0129 0.8250
vn -0.0990 0.1021 0.9898
vn 0.1744 0.5999 0.7808
vn 0.0762 0.0989 0.9922
vn 0.0109 -0.1327 -0.9911
vn 0.0118 0.0955 -0.9954
vn 0.1247 -0.0175 -0.9920
vn -0.1006 -0.0560 -0.9933
vn -0.2248 0.0624 -0.9724
vn 0.0907 0.0329 -0.9953
vn -0.0303 -0.0927 -0.9952
vn 0.0943 -0.2169 -0.9716
vn 0.2093 -0.1005 -0.9727
vn -0.0305 0.0800 -0.9963
vn 0.0952 0.1804 -0.9790
vn 0.0727 -0.0562 -0.9958
vn 0.9569 0.2750 -0.0931
vn 0.2075 0.9180 0.3379
vn 0.9105 0.1897 0.3675
vn -0.1131 -0.0570 0.9919
vn 0.2730 0.9004 -0.3387
vn 0.9558 0.2750 -0.1037
vn 0.9088 0.0088 -0.4172
vn -0.8783 0.3374 -0.3389
vn -0.2442 0.9587 -0.1456
vn -0.0508 0.8954 -0.4424
vn 0.8355 -0.4000 -0.3769
vn 0.0658 -0.9773 -0.2014
vn -0.1405 -0.8932 -0.4272
vn -0.4410 -0.8550 -0.2730
vn -0.9891 -0.1415 0.0401
vn -0.9600 -0.0622 -0.2730
vn -0.7339 -0.1307 -0.6666
vn -0.6694 0.1674 -0.7238
vn 0.6284 0.1915 -0.7539
vn 0.0908 -0.1410 -0.9858
vn 0.1128 0.6894 -0.7156
vn 0.6835 -0.1212 -0.7198
vn -0.1345 -0.7455 -0.6528
vn 0.6776 -0.0633 -0.7327
vn -0.8444 0.3164 -0.4323
vn 0.8474 -0.1663 0.5043
vn -0.0669 -0.9124 0.4037
vn 0.9056 -0.2115 0.3676
vn -0.8522 0.0535 0.5205
vn -0.8359 0.0692 0.5445
vn -0.0516 -0.8756 0.4803
vn -0.1403 -0.0212 -0.9899
vn -0.0716 0.1807 -0.9809
vn 0.0510 -0.0002 -0.9987
vn 0.2093 0.0662 -0.9756
vn 0.0792 0.9866 -0.1429
vn 0.0927 0.9939 -0.0595
vn -0.9731 0.2301 -0.0088
vn 0.9913 -0.1099 -0.0723
vn -0.2942 -0.9516 -0.0888
s 1
f 1/1/1 2/2/2 3/3/3
f 2/2/4 4/4/5 3/3/6
f 5/5/7 6/6/8 4/4/9
f 3/3/10 6/7/11 1/8/12
f 7/9/13 1/1/14 6/10/15
f 1/1/1 8/11/16 2/2/2
f 2/2/4 5/5/17 4/4/5
f 5/5/7 7/12/18 6/6/8
f 3/3/10 4/4/19 6/7/11
f 7/9/13 8/11/20 1/1/14
f 9/13/21 10/14/22 11/15/23
f 10/14/24 12/16/25 13/17/26
f 12/16/27 14/18/28 13/17/29
f 13/17/30 15/19/31 16/20/32
f 17/21/33 18/22/34 19/23/35
f 14/18/36 9/24/37 11/25/38
f 20/26/39 21/27/40 22/28/41
f 9/24/42 19/23/43 21/29/44
f 20/26/45 18/22/46 12/16/47
f 23/30/48 24/31/49 25/32/50
f 26/33/51 27/34/52 28/35/53
f 29/36/54 23/30/55 26/37/56
f 28/35/57 30/38/58 31/39/59
f 25/32/50 24/31/49 32/40/60
f 30/38/61 33/41/62 34/42/63
f 30/38/64 24/31/65 35/43/66
f 27/34/67 25/44/68 33/41/69
f 33/41/62 32/45/70 34/42/63
f 34/42/71 32/46/72 24/31/65
f 16/20/73 36/47/74 37/48/75
f 11/25/76 15/19/77 14/18/78
f 10/14/79 16/20/80 37/49/81
f 10/14/82 36/50/83 11/15/84
f 29/36/85 30/38/86 35/43/87
f 25/44/68 32/51/88 33/41/69
f 18/22/89 29/36/90 19/23/91
f 22/28/92 31/39/93 18/22/94
f 19/23/95 26/37/96 21/29/97
f 21/27/98 28/35/99 22/28/100
f 9/13/21 20/26/101 10/14/22
f 10/14/24 20/26/102 12/16/25
f 12/16/27 17/21/103 14/18/28
f 13/17/30 14/18/104 15/19/31
f 17/21/33 12/16/105 18/22/34
f 14/18/36 17/21/106 9/24/37
f 20/26/39 9/13/107 21/27/40
f 9/24/42 17/21/108 19/23/43
f 20/26/45 22/28/109 18/22/46
f 23/30/48 35/43/110 24/31/49
f 26/33/51 23/52/111 27/34/52
f 29/36/54 35/43/112 23/30/55
f 28/35/57 27/34/113 30/38/58
f 30/38/61 27/34/114 33/41/62
f 30/38/64 34/42/71 24/31/65
f 27/34/67 23/52/115 25/44/68
f 16/20/73 15/19/116 36/47/74
f 11/25/76 36/53/117 15/19/77
f 10/14/79 13/17/118 16/20/80
f 10/14/82 37/49/119 36/50/83
f 29/36/85 31/39/120 30/38/86
f 18/22/89 31/39/121 29/36/90
f 22/28/92 28/35/122 31/39/93
f 19/23/95 29/36/123 26/37/96
f 21/27/98 26/33/124 28/35/99
